<svg width="1500" height="1500" viewBox="0 0 1500 1500" fill="none" xmlns="http://www.w3.org/2000/svg">
<g clip-path="url(#clip0_7639_416)">
<path d="M834.6 720.2H809.3L716.5 824.5C716.5 824.5 713.8 827.4 712.1 827.4V720.1H687.7V950.1H712.1V832.9C713.8 833.3 715.7 835.6 715.7 835.6L804.9 950.1H837.2L733.5 823.4L834.5 720.3L834.6 720.2Z" fill="#242424"/>
<path d="M1142.5 1068.8L1132.4 440H912.6V410C912.5 321.8 840.7 250 752.5 250C664.3 250 592.5 321.8 592.5 410V440H372.6L362.5 1068.8L320 1260H1184.9L1142.4 1068.8H1142.5ZM612.5 410C612.5 332.8 675.3 270 752.5 270C829.7 270 892.5 332.8 892.5 410V440H612.5V410ZM382.2 1072.2L382.4 1071.2L392.3 460H592.5V530H612.5V460H892.5V526.7H912.5V460H1112.7L1122.5 1070.2L1160 1240H344.9L382.2 1072.2Z" fill="#242424"/>
</g>
<defs>
<clipPath id="clip0_7639_416">
<rect width="864.9" height="1010" fill="white" transform="translate(320 250)"/>
</clipPath>
</defs>
</svg>
