<svg width="130" height="151" xmlns="http://www.w3.org/2000/svg"><g stroke="#000" stroke-width=".25" fill-rule="evenodd"><path d="M92.298 79.303c-2.67 0-4.832-2.06-4.832-4.606V33.243c0-12.702-10.836-23.03-24.16-23.03s-24.16 10.328-24.16 23.03v41.454c0 2.545-2.161 4.606-4.831 4.606-2.67 0-4.832-2.06-4.832-4.606V33.243C29.483 15.463 44.655 1 63.306 1 81.952 1 97.13 15.463 97.13 33.243v41.454c0 2.545-2.162 4.606-4.832 4.606z"/><path d="M118.321 150.798H11.882c-5.983 0-10.851-5.317-10.851-11.848L1 53.72c0-3.168 1.282-6.146 3.611-8.39 2.336-2.239 5.435-3.476 8.732-3.476H116.83c6.81 0 12.343 5.317 12.343 11.86v85.236c0 6.53-4.868 11.848-10.851 11.848h0zM13.343 51.327c-.9 0-1.485.438-1.756.698a2.34 2.34 0 00-.727 1.688l.024 85.236c0 1.44.74 2.292 1.023 2.38l106.414-.005c.253-.083.992-.936.992-2.375V53.713c0-1.315-1.115-2.386-2.483-2.386H13.343z"/></g></svg>