<svg width="150" height="125" xmlns="http://www.w3.org/2000/svg"><path d="M143.75 108.696H6.25c-3.442 0-6.25 3.662-6.25 8.152C0 121.338 2.808 125 6.25 125h137.5c3.442 0 6.25-3.662 6.25-8.152 0-4.49-2.808-8.152-6.25-8.152zm0-54.348H6.25C2.808 54.348 0 58.01 0 62.5c0 4.49 2.808 8.152 6.25 8.152h137.5c3.442 0 6.25-3.662 6.25-8.152 0-4.49-2.808-8.152-6.25-8.152zM6.25 16.304h137.5c3.442 0 6.25-3.662 6.25-8.152C150 3.662 147.192 0 143.75 0H6.25C2.808 0 0 3.662 0 8.152c0 4.49 2.808 8.152 6.25 8.152z"/></svg>