<svg xmlns="http://www.w3.org/2000/svg" viewBox="0 0 34.3 22.51"><path d="M31.69 22.11H2.61A2.21 2.21 0 01.4 19.9V2.61A2.21 2.21 0 012.61.4h29.08a2.21 2.21 0 012.21 2.21V19.9a2.21 2.21 0 01-2.21 2.21z" fill="#f9f9f9"/><circle cx="22.04" cy="11.33" r="7.14" fill="#ffc601"/><circle cx="12.42" cy="11.33" r="7.14" fill="#f43735"/><path d="M31.69 22.11H2.61A2.21 2.21 0 01.4 19.9h0V2.61A2.21 2.21 0 012.61.4h29.08a2.21 2.21 0 012.21 2.21V19.9a2.21 2.21 0 01-2.21 2.21z" fill="none" stroke="#303030" stroke-linecap="round" stroke-linejoin="round" stroke-width=".8"/><path d="M8.06 10.31l-.4 2.31H7l.55-3.21h1v1.87h.06L9 10.23c.08-.24.16-.49.25-.72 0 0 .07-.1.11-.1h1l-.54 3.22h-.7l.36-2.25-.07.19c-.23.65-.47 1.29-.7 1.94 0 .12-.1.16-.22.15h-.34l-.06-2.31zm18.4 0l.15-.88h.68l-.15 1c-.12.71-.24 1.42-.35 2.13 0 .11-.06.13-.15.13h-.52v-.2a3 3 0 01-.33.18.77.77 0 01-1-.51 1.76 1.76 0 01.34-1.77c.34-.55.87-.56 1.33-.11zm-.17.86a2.21 2.21 0 000-.28.35.35 0 00-.56-.2.75.75 0 00-.21.25 1.17 1.17 0 00-.1.71.38.38 0 00.25.35.42.42 0 00.46-.18 1.13 1.13 0 00.16-.68zM11.56 11c.08-.25 0-.39-.25-.39s-.58 0-.88.06v-.27c0-.29 0-.31.34-.35a3.26 3.26 0 01.81 0 .7.7 0 01.63.83l-.24 1.74s-.05.11-.08.11h-.52v-.18a3 3 0 01-.5.22.63.63 0 01-.82-.59 1 1 0 011-1.14h.43zm-.07.55a.81.81 0 00-.59.08.36.36 0 00-.1.49.33.33 0 00.48 0 .76.76 0 00.21-.61zM22.7 11c.06-.28 0-.39-.27-.39s-.56 0-.86.06c0-.15 0-.32.08-.49s.06-.06.09-.07a2 2 0 011-.09.73.73 0 01.62.85c-.08.61-.17 1.21-.26 1.83h-.58v-.22l-.16.12a.81.81 0 01-.87.07.74.74 0 01-.29-.79 1 1 0 011-.86zm-.08.55a.83.83 0 00-.58.08.32.32 0 00-.16.35.34.34 0 00.16.21.32.32 0 00.38-.1.83.83 0 00.2-.59zm-6.56.07a.41.41 0 00.31.5 1.39 1.39 0 00.79 0l.22-.07c0 .22-.07.41-.11.61 0 0-.06.06-.09.07a2.05 2.05 0 01-1 0 .94.94 0 01-.74-.81 1.81 1.81 0 01.39-1.53 1 1 0 01.92-.38.94.94 0 01.83 1.16c-.06.45-.06.45-.51.45h-1zm.06-.56h.68a.12.12 0 00.09-.06.34.34 0 00-.3-.42c-.26-.06-.44.12-.48.42zM21.4 9.5l-.1.69c-.15 0-.28-.11-.42-.14a.75.75 0 00-.85.33 1.48 1.48 0 00-.21 1.19.63.63 0 00.78.47c.14 0 .27-.08.42-.13 0 .23-.07.45-.11.67a.13.13 0 01-.08.08 3.38 3.38 0 01-.71.06 1.06 1.06 0 01-1-.89 2.4 2.4 0 01.15-1.58 1.51 1.51 0 012.13-.75zm-7.34.5l-.08.58h-.42c-.25 0-.39 0-.41.17s.14.26.28.31a.77.77 0 01.48 1 .67.67 0 01-.53.54 2.69 2.69 0 01-1.2 0l.08-.56.69.06a.45.45 0 00.2 0 .19.19 0 000-.34 2 2 0 00-.3-.18.76.76 0 01-.45-.88.78.78 0 01.72-.68 2.56 2.56 0 01.94-.02zm.4-.38h.67l-.05.38h.33l-.08.62H15l-.12.73c0 .13 0 .25-.06.38s0 .32.27.31h.13c0 .17 0 .34-.07.51a.11.11 0 01-.07.07 2.77 2.77 0 01-.6 0 .43.43 0 01-.37-.48 7.8 7.8 0 01.1-.89c.06-.52.15-1.07.25-1.63zm9.55 3h-.71l.43-2.62h.64v.33c.18-.2.34-.42.64-.37l-.25.77c-.23 0-.33.06-.39.31s-.16.72-.23 1.08c-.08.18-.14.35-.14.52zm-5.8 0h-.71l.16-1c.08-.5.17-1 .25-1.51 0-.09 0-.13.14-.13h.52v.35c.18-.21.34-.42.64-.37l-.25.77c-.22 0-.32.06-.39.29s-.16.73-.23 1.09c-.07.19-.1.36-.13.54zM6 13.46h.12c0-.07-.06-.15-.08-.22z" fill="#fff"/><path d="M18.85 8.24a7.16 7.16 0 00-6.43-4.09 7.1 7.1 0 100 14.2 7 7 0 004.71-1.8 6.76 6.76 0 001.64-2.14" fill="none" stroke="#303030" stroke-linecap="round" stroke-linejoin="round" stroke-width=".8"/><path d="M15.41 8.24a7.16 7.16 0 016.43-4.09 7.1 7.1 0 010 14.2 7.17 7.17 0 01-6.36-3.94" fill="none" stroke="#303030" stroke-linecap="round" stroke-linejoin="round" stroke-width=".8"/></svg>