<svg xmlns="http://www.w3.org/2000/svg" viewBox="0 0 32 21"><path d="M30 0H2a2 2 0 00-2 2v17a2 2 0 002 2h28a2 2 0 002-2V2a2 2 0 00-2-2z" fill="#3498d8"/><path d="M6.7 10.8h1.6l-.8-2zM29 7h-4.1l-1 1.1L23 7h-8.7l-.8 1.8-.8-1.8H9.2v.8L8.8 7h-3l-2.9 7h3.5l.4-1.1h1l.4 1.1h3.9v-.8l.3.8h2l.3-.9v.9h8l1-1.1.9 1.1h4.1l-2.6-3.5zm-12.1 6h-1.1V9.1L14.1 13h-1l-1.7-3.9V13H9.1l-.4-1.1H6.3L5.9 13H4.6l2.1-5h1.7l1.9 4.7V8h1.9l1.5 3.4L15.1 8H17v5zm9.9 0h-1.5L24 11.3 22.5 13H18V8h4.6L24 9.6 25.5 8h1.4l-2.2 2.5zm-7.7-4v.9h2.5v1h-2.5v1h2.8l1.3-1.5L22 9z" fill="#fff"/></svg>