<svg xmlns="http://www.w3.org/2000/svg" viewBox="0 0 34.55 22.66"><path d="M31.94 22.26H2.61a2.21 2.21 0 01-2.21-2.2V2.61A2.21 2.21 0 012.61.4h29.33a2.21 2.21 0 012.21 2.21v17.45a2.21 2.21 0 01-2.21 2.2z" fill="#f9f9f9"/><path d="M9.71 12.59a.41.41 0 00.06.17l2.16-5.46h2.2l-.13.27-3.22 7.7a.18.18 0 01-.2.14H8.66a.14.14 0 01-.16-.13c-.54-2.11-1.09-4.22-1.63-6.34" fill="#0052cc"/><path d="M6.86 8.94a1.1 1.1 0 00-.65-.8 10.24 10.24 0 00-1.85-.6h-.08v-.09c0-.16.12-.17.26-.17h3.31a1 1 0 011 .84l.84 4.46" fill="#ffc601"/><path d="M21.67 7.14c.24 0 .47.07.71.12s.45.12.68.18l.17.07-.36 1.69c-.28-.09-.54-.18-.81-.25a3 3 0 00-1.48 0 1.3 1.3 0 00-.5.27.46.46 0 000 .73 2.92 2.92 0 00.52.38c.37.22.75.4 1.12.63a2.21 2.21 0 011.06 1.27 2.46 2.46 0 01-1 2.63 3.82 3.82 0 01-1.79.67 6.53 6.53 0 01-3-.3l-.17-.07.38-1.77.22.1a4.26 4.26 0 001.9.41 1.88 1.88 0 00.88-.2.63.63 0 00.13-1.13 4.41 4.41 0 00-.71-.43 6.28 6.28 0 01-1.17-.73 2.06 2.06 0 01-.34-2.85A3.06 3.06 0 0120 7.29c.24-.06.49-.08.74-.13h.11zm8.59 8.25h-1.93l-.18-.87c-.06-.29-.07-.34-.42-.34h-2.21a.16.16 0 00-.19.13c-.11.33-.23.65-.35 1 0 0-.08.11-.12.11h-2.11v-.13l3.08-7.35a1 1 0 01.94-.63h1.75l1.69 8.1zm-2.53-2.86l-.63-3-1.09 3zM13.31 15.4l1.74-8.1h2.09l-.14.78q-.76 3.57-1.52 7.13c0 .15-.09.2-.24.19h-1.9z" fill="#0052cc"/><path d="M31.94 22.26H2.61a2.21 2.21 0 01-2.21-2.2V2.61A2.21 2.21 0 012.61.4h29.33a2.21 2.21 0 012.21 2.21v17.45a2.21 2.21 0 01-2.21 2.2z" fill="none" stroke="#303030" stroke-linecap="round" stroke-linejoin="round" stroke-width=".8"/></svg>