<svg xmlns="http://www.w3.org/2000/svg" viewBox="0 0 291.76 209.71"><path d="M18.24 0h255.29a18.24 18.24 0 0118.23 18.24v173.23a18.24 18.24 0 01-18.23 18.24H18.24A18.24 18.24 0 010 191.47V18.24A18.24 18.24 0 0118.24 0z" fill="#e4e7e7"/><path d="M58.68 36.46H36.45v73h22.11c11.73 0 20.22-2.62 27.66-8.43a35.91 35.91 0 0014.07-28c0-21.6-17.1-36.57-41.61-36.57zm16.47 50.27c-3.95 3.06-9 4.38-17.1 4.38H54.7V54.78H58c8.08 0 13 1.23 17.1 4.43A17.37 17.37 0 0182 72.89a17.65 17.65 0 01-6.85 13.84zm34.28 22.7h18.11v-73.1h-18.11zm59.22-44.84c-9.25-3-12-5-12-8.8 0-4.39 4.85-7.77 11.49-7.77 4.62 0 8.41 1.68 12.45 5.66l8-9.33a37.25 37.25 0 00-23.21-7.77c-13.95 0-24.62 8.6-24.62 20 0 9.67 5 14.59 19.42 19.2 6 1.89 9.11 3.14 10.65 4 3.08 1.79 4.63 4.29 4.63 7.22 0 5.68-5.11 9.87-12 9.87-7.34 0-13.26-3.24-16.81-9.33l-9.93 8.52c7.07 9.22 15.61 13.33 27.33 13.33 16 0 27.23-9.46 27.23-23 .09-11.08-5.11-16.11-22.63-21.8zm50.23 8.25c0-11.36 9.16-20.32 20.82-20.32 5.91 0 10.41 2 15.57 6.65V40.73a36.19 36.19 0 00-17.08-4.26c-21 0-37.87 16.19-37.87 36.45 0 20.5 16.44 36.36 37.57 36.36a38.84 38.84 0 0017.39-4.06V86.78c-5 4.62-9.36 6.48-15 6.48-12.52.01-21.4-8.44-21.4-20.42z" fill="#324d5b"/><path d="M273.53 209.71a18.24 18.24 0 0018.23-18.24v-72.94l-164.11 91.18z" fill="#f4b459"/></svg>