<svg viewBox="0 0 20 20" fill="none" xmlns="http://www.w3.org/2000/svg">
<path fill-rule="evenodd" clip-rule="evenodd" d="M1.4737 1C1.21208 1 1 1.23025 1 1.51429V11.5796C1 11.8636 1.21208 12.0939 1.4737 12.0939H3.84222V14.2245C3.84222 14.4357 3.9612 14.6255 4.14222 14.7029C4.32323 14.7804 4.52947 14.7298 4.66223 14.5754L6.79555 12.0939H7.82031V15.841C7.82031 16.125 8.0324 16.3553 8.29402 16.3553H13.1102L15.2435 18.8366C15.3763 18.991 15.5825 19.0416 15.7635 18.9642C15.9445 18.8867 16.0635 18.6969 16.0635 18.4857V16.3553H18.526C18.7876 16.3553 18.9997 16.125 18.9997 15.841V6.29001C18.9997 6.00597 18.7876 5.77572 18.526 5.77572H14.4532V1.51429C14.4532 1.23025 14.2411 1 13.9795 1H1.4737ZM14.4532 6.80429V11.5796C14.4532 11.8636 14.2411 12.0939 13.9795 12.0939H8.76772V15.3267H13.316C13.4473 15.3267 13.5727 15.3859 13.6623 15.4901L15.1161 17.181V15.841C15.1161 15.557 15.3282 15.3267 15.5898 15.3267H18.0523V6.80429H14.4532ZM1.94741 11.0653V2.02857H13.5058V11.0653H6.5897C6.4584 11.0653 6.33299 11.1245 6.2434 11.2287L4.78963 12.9197V11.5796C4.78963 11.2956 4.57755 11.0653 4.31593 11.0653H1.94741Z" fill="#000000"/>
</svg>
