<svg width="20" height="19" xmlns="http://www.w3.org/2000/svg"><path d="M12 1.333A3.562 3.562 0 008.444 4.89c0 .921.36 1.75.938 2.382a6.586 6.586 0 00-1.007.576 3.534 3.534 0 00-2.153-.736 3.562 3.562 0 00-3.555 3.556c0 .472.094.923.264 1.333H.625a.462.462 0 00-.424.465.463.463 0 00.466.424h2.805c.042.052.08.103.125.153-1.99.936-3.375 2.897-3.375 5.18 0 .233.212.445.445.445h11.11a.462.462 0 00.445-.445c0-2.283-1.385-4.244-3.375-5.18.574-.632.93-1.457.93-2.375a3.53 3.53 0 00-.763-2.188 5.192 5.192 0 011.305-.653.454.454 0 00.298-.35.454.454 0 00-.173-.427 2.66 2.66 0 01-1.11-2.16A2.66 2.66 0 0112 2.222a2.66 2.66 0 012.667 2.667 2.66 2.66 0 01-1.111 2.16.454.454 0 00-.173.426c.025.16.145.3.298.351 1.863.62 3.226 2.236 3.41 4.174h-6.202a.462.462 0 00-.465.465c.01.233.232.435.465.424h8.444a.463.463 0 00.451-.445.462.462 0 00-.45-.444h-1.348c-.166-2.092-1.502-3.86-3.361-4.736.574-.631.93-1.457.93-2.375A3.562 3.562 0 0012 1.333zM6.222 8a2.66 2.66 0 012.667 2.667 2.66 2.66 0 01-1.111 2.16.454.454 0 00-.173.426c.025.16.145.3.298.351 1.862.62 3.212 2.236 3.396 4.174H1.146c.184-1.938 1.533-3.554 3.396-4.174a.454.454 0 00.298-.35.454.454 0 00-.173-.428 2.66 2.66 0 01-1.111-2.16A2.66 2.66 0 016.222 8z"/></svg>