<svg width="14" height="14" xmlns="http://www.w3.org/2000/svg"><g fill-rule="evenodd"><path d="M12.989-.235c.625 0 1.154.457 1.218 1.055l.006.122V13a.5.5 0 01-.992.09l-.008-.09V.94c0-.073-.066-.146-.163-.169l-.06-.006H2.329c-.109 0-.193.062-.217.133l-.008.044V13a.5.5 0 01-.992.09L1.104 13V.94c0-.615.49-1.11 1.1-1.17l.125-.006h10.66z"/><path d="M9.12 5.731l1.153.804 1.365-.431-.462 1.273.861 1.078-1.44-.018-.832 1.098-.428-1.284-1.376-.399 1.177-.776zM5.347 2.44l.706 1.216 1.42.185-.958.959.325 1.34-1.298-.624-1.218.644.155-1.345L3.4 3.872l1.395-.206z"/></g></svg>