<svg xmlns="http://www.w3.org/2000/svg" viewBox="0 0 100 100"><path d="M7.24 22.307h53.37c.98 5.1 5.42 8.87 10.63 8.87 5.21 0 9.65-3.77 10.63-8.87h9.98c1.19 0 2.17-1 2.17-2.22s-.98-2.22-2.17-2.22h-9.98c-.98-5.1-5.42-8.87-10.63-8.87-5.21 0-9.65 3.77-10.63 8.87H7.24c-1.19 0-2.17 1-2.17 2.22s.98 2.22 2.17 2.22zm64-8.87c3.58 0 6.51 2.99 6.51 6.65s-2.93 6.65-6.51 6.65c-3.58 0-6.51-2.99-6.51-6.65s2.93-6.65 6.51-6.65zm20.61 34.37H38.48c-.98-5.1-5.42-8.87-10.63-8.87s-9.65 3.77-10.63 8.87H7.24c-1.19 0-2.17 1-2.17 2.22 0 1.22.98 2.22 2.17 2.22h9.98c.98 5.1 5.42 8.87 10.63 8.87s9.65-3.77 10.63-8.87h53.37c1.19 0 2.17-1 2.17-2.22 0-1.22-.97-2.22-2.17-2.22zm-64 8.88c-3.58 0-6.51-2.99-6.51-6.65s2.93-6.65 6.51-6.65 6.51 2.99 6.51 6.65c0 3.65-2.93 6.65-6.51 6.65zm64 21.06H60.18c-.98-5.1-5.42-8.87-10.63-8.87s-9.65 3.77-10.63 8.87H7.24c-1.19 0-2.17 1-2.17 2.22 0 1.22.98 2.22 2.17 2.22h31.68c.98 5.1 5.42 8.87 10.63 8.87s9.65-3.77 10.63-8.87h31.68c1.19 0 2.17-1 2.17-2.22-.01-1.22-.98-2.22-2.18-2.22zm-42.3 8.88c-3.58 0-6.51-2.99-6.51-6.65s2.93-6.65 6.51-6.65c3.58 0 6.51 2.99 6.51 6.65s-2.93 6.65-6.51 6.65z" fill-rule="evenodd" clip-rule="evenodd"/></svg>