<svg width="150" height="150" xmlns="http://www.w3.org/2000/svg"><path d="M55 0C41.25 0 30 11.005 30 24.457c0 5.496 1.888 10.578 5.052 14.673H5c-2.617 0-5 2.331-5 4.892V73.37c0 2.56 2.383 4.89 5 4.89h5v66.849c0 2.56 2.383 4.891 5 4.891h120c2.617 0 5-2.331 5-4.891V78.26h5c2.617 0 5-2.331 5-4.891V44.022c0-2.56-2.383-4.892-5-4.892h-30.052c3.164-4.095 5.052-9.177 5.052-14.673C120 11.005 108.75 0 95 0c-8.157 0-15.43 3.923-20 9.885C70.43 3.923 63.158 0 55 0zm0 9.783c8.346 0 15 6.509 15 14.674V39.13H55c-8.347 0-15-6.509-15-14.673 0-8.165 6.653-14.674 15-14.674zm40 0c8.346 0 15 6.509 15 14.674 0 8.164-6.654 14.673-15 14.673H80V24.457c0-8.165 6.653-14.674 15-14.674zm-85 39.13h60v19.565H10V48.913zm70 0h60v19.565H80V48.913zM20 78.261h50v61.956H20V78.261zm60 0h50v61.956H80V78.261z" fill-rule="evenodd"/></svg>