<svg width="24" height="24" viewBox="0 0 24 24" fill="none" xmlns="http://www.w3.org/2000/svg">
<g clip-path="url(#clip0_888_20540)">
<path d="M12.25 10.2046V14.5614H18.3046C18.0387 15.9626 17.2409 17.149 16.0443 17.9467L19.6954 20.7797C21.8227 18.8161 23.05 15.932 23.05 12.5058C23.05 11.7081 22.9784 10.941 22.8454 10.2047L12.25 10.2046Z" fill="#4285F4"/>
<path d="M5.94515 14.3914L5.12168 15.0217L2.20684 17.2921C4.05799 20.9637 7.85204 23.5001 12.2498 23.5001C15.2872 23.5001 17.8338 22.4979 19.6952 20.7797L16.0441 17.9467C15.0418 18.6217 13.7633 19.0308 12.2498 19.0308C9.32476 19.0308 6.83959 17.057 5.94975 14.3979L5.94515 14.3914Z" fill="#34A853"/>
<path d="M2.20685 7.20801C1.43984 8.72159 1.00011 10.4296 1.00011 12.25C1.00011 14.0704 1.43984 15.7784 2.20685 17.292C2.20685 17.3022 5.95012 14.3875 5.95012 14.3875C5.72512 13.7125 5.59213 12.9966 5.59213 12.2499C5.59213 11.5032 5.72512 10.7873 5.95012 10.1123L2.20685 7.20801Z" fill="#FBBC05"/>
<path d="M12.25 5.47957C13.9068 5.47957 15.3796 6.05228 16.5557 7.15685L19.7773 3.93528C17.8238 2.11485 15.2876 1 12.25 1C7.85228 1 4.05799 3.52615 2.20684 7.208L5.95 10.1126C6.83972 7.45343 9.32499 5.47957 12.25 5.47957Z" fill="#EA4335"/>
</g>
<defs>
<clipPath id="clip0_888_20540">
<rect width="22.05" height="22.5" fill="white" transform="translate(1 1)"/>
</clipPath>
</defs>
</svg>
