<svg width="35" height="36" xmlns="http://www.w3.org/2000/svg"><path d="M31.183 25.72c1.22-2.144 1.55-4.605.927-6.947l-2.518-9.529v-.002l-.229-.85a2.452 2.452 0 00-2.999-1.752 2.43 2.43 0 00-1.45 1.123 2.393 2.393 0 00-1.084-1.327 2.358 2.358 0 00-1.834-.236c-.668.174-1.2.617-1.51 1.188A2.456 2.456 0 0017.69 6.15a2.43 2.43 0 00-1.445 1.14l-.312-1.174-.814-3.051a2.414 2.414 0 00-1.12-1.494 2.42 2.42 0 00-1.855-.263A2.469 2.469 0 0010.44 4.33l3.914 14.832-3.73-2.267a2.453 2.453 0 00-1.878-.282 2.54 2.54 0 00-1.58 1.182 2.587 2.587 0 00.89 3.516l7.634 4.597a9.143 9.143 0 003.209 3.143l1.487 5.647c.042.16.186.272.352.274l12.44.128h.003a.367.367 0 00.355-.461l-2.352-8.92zM17.789 13.338l-1.857-7.22m5.598 5.375l-1.001-4.17m5.083 3.029l-.646-2.692M3.7 2.65l4.29.759c-3.582.861-5.94 4.275-5.333 7.884A6.843 6.843 0 004.2 14.602l.785-4.045m1.67-3.234L7.99 3.41M4.199 14.602l-3.97-1.457" stroke="#000" fill="none" stroke-linecap="round" stroke-linejoin="round"/></svg>