<svg width="150" height="126" xmlns="http://www.w3.org/2000/svg"><path d="M39.81.003c-10.237 0-20.485 3.827-28.224 11.41-15.47 15.155-15.426 39.483 0 54.669 20.061 20.624 39.538 38.928 59.316 58.364 2.074 2.072 6.004 2.072 8.077 0 19.812-19.404 39.59-38.88 59.403-58.283 15.49-15.165 15.49-39.504 0-54.668-15.491-15.166-40.958-15.166-56.449 0l-6.948 6.73-6.947-6.812C60.482 3.676 49.192-.11 39.813.003h-.003zm0 10.343c7.274 0 14.558 2.812 20.235 8.373l10.943 10.753c2.062 2.022 5.927 2.022 7.99 0L89.92 18.72c11.344-11.113 29.125-11.113 40.469 0 11.344 11.112 11.344 29.028 0 40.14-18.476 18.1-36.931 36.24-55.41 54.342L19.572 58.858c-11.345-11.133-11.345-29.028 0-40.14 5.677-5.56 12.962-8.372 20.235-8.372h.004z"/></svg>