<svg width="150" height="150" xmlns="http://www.w3.org/2000/svg"><path fill="none" d="M-1-1h152v152H-1z"/><path d="M75 1.5C34.407 1.5 1.5 34.407 1.5 75c0 40.594 32.907 73.5 73.5 73.5 40.594 0 73.5-32.906 73.5-73.5 0-40.593-32.906-73.5-73.5-73.5zm-6.286 33.043h12.238v13.018H68.714V34.543zm20.254 79.003H75.506c-5.23 0-7.46-2.225-7.46-7.566V71.263c0-1.668-.889-2.448-2.447-2.448h-4.45v-12.02H74.61c5.234 0 7.454 2.336 7.454 7.565v34.828c0 1.563.89 2.448 2.448 2.448h4.45v11.91h.005z" stroke-width="1.5" stroke="#000"/></svg>