<svg width="20" height="20" xmlns="http://www.w3.org/2000/svg"><path d="M9.866.533c-2.534 0-2.852.011-3.848.056-.993.046-1.672.204-2.265.434A4.575 4.575 0 002.1 2.1a4.575 4.575 0 00-1.077 1.653C.793 4.346.635 5.025.59 6.018.544 7.014.533 7.332.533 9.866c0 2.535.011 2.853.056 3.848.046.994.204 1.672.434 2.266A4.575 4.575 0 002.1 17.633c.519.518 1.04.838 1.653 1.076.593.23 1.272.389 2.265.434.996.045 1.314.056 3.848.056 2.535 0 2.853-.01 3.848-.056.994-.045 1.672-.203 2.266-.434a4.575 4.575 0 001.653-1.076 4.575 4.575 0 001.076-1.653c.23-.594.389-1.272.434-2.266.045-.995.056-1.313.056-3.848 0-2.534-.01-2.852-.056-3.848-.045-.993-.203-1.672-.434-2.265A4.575 4.575 0 0017.633 2.1a4.575 4.575 0 00-1.653-1.077c-.594-.23-1.272-.388-2.266-.434C12.72.544 12.401.533 9.866.533zm0 1.682c2.492 0 2.787.01 3.771.054.91.042 1.405.194 1.733.322.436.169.747.371 1.074.698a2.9 2.9 0 01.698 1.073c.128.329.28.823.321 1.733.045.984.054 1.28.054 3.771 0 2.492-.009 2.787-.054 3.771-.041.91-.193 1.405-.321 1.733-.17.436-.372.747-.698 1.074a2.891 2.891 0 01-1.074.698c-.328.128-.823.28-1.733.321-.983.045-1.279.054-3.77.054-2.493 0-2.788-.009-3.772-.054-.91-.041-1.404-.193-1.733-.321a2.891 2.891 0 01-1.073-.698 2.892 2.892 0 01-.698-1.074c-.128-.328-.28-.823-.322-1.733-.045-.984-.054-1.279-.054-3.77 0-2.493.01-2.788.054-3.772.042-.91.194-1.404.322-1.733.169-.436.371-.747.698-1.073a2.891 2.891 0 011.073-.698c.329-.128.823-.28 1.733-.322.984-.045 1.28-.054 3.771-.054zm0 2.859a4.793 4.793 0 100 9.585 4.793 4.793 0 000-9.585zm0 7.903a3.111 3.111 0 110-6.222 3.111 3.111 0 010 6.222zm6.102-8.093a1.12 1.12 0 11-2.24 0 1.12 1.12 0 012.24 0z" fill-rule="evenodd"/></svg>