<svg viewBox="0 0 160 160" xmlns="http://www.w3.org/2000/svg"><path d="M159.98 80.014c0 44.181-35.816 79.998-79.997 79.998-44.183 0-79.998-35.817-79.998-79.998S35.8.016 79.983.016c44.181 0 79.998 35.816 79.998 79.998"/><path d="M133.195 75.2c0-23.81-23.87-43.181-53.212-43.181-29.338 0-53.211 19.371-53.211 43.181 0 21.346 18.93 39.223 44.502 42.603 1.732.374 4.09 1.143 4.686 2.624.539 1.345.352 3.453.173 4.812 0 0-.625 3.755-.76 4.555-.232 1.345-1.069 5.262 4.61 2.869 5.68-2.393 30.644-18.045 41.808-30.894h-.003c7.712-8.457 11.407-17.04 11.407-26.569" fill="#fff"/><path d="M69.17 63.694h-3.734c-.572 0-1.036.464-1.036 1.035v23.186c0 .57.464 1.033 1.036 1.033h3.734c.572 0 1.036-.463 1.036-1.033V64.729c0-.571-.464-1.035-1.036-1.035m25.692 0H91.13c-.572 0-1.036.464-1.036 1.035v13.774l-10.625-14.35a1.135 1.135 0 00-.08-.103l-.007-.008-.062-.064-.02-.017a.462.462 0 00-.056-.046c-.008-.008-.018-.014-.026-.021l-.053-.037-.032-.02-.056-.03-.032-.016-.06-.025-.035-.012-.06-.02c-.012-.003-.024-.005-.036-.01-.02-.003-.04-.009-.06-.013l-.044-.005a.36.36 0 00-.054-.007l-.054-.004-.036-.001h-3.732c-.572 0-1.037.464-1.037 1.035v23.186c0 .57.465 1.033 1.037 1.033h3.732c.572 0 1.038-.463 1.038-1.033V74.143L90.28 88.512c.073.103.165.187.264.255l.012.008c.02.014.041.028.062.038.01.007.02.011.03.016.016.01.032.018.05.026.016.005.031.013.05.02l.03.012.071.024.016.002a.99.99 0 00.264.035h3.733c.574 0 1.036-.463 1.036-1.033V64.729c0-.571-.462-1.035-1.036-1.035M60.17 83.147H50.029V64.733c0-.572-.464-1.036-1.036-1.036H45.26c-.572 0-1.036.464-1.036 1.036v23.184a1.025 1.025 0 00.304.732c.004.006.009.01.014.015.187.177.438.288.715.288H60.17c.572 0 1.034-.464 1.034-1.036v-3.733c0-.572-.462-1.036-1.034-1.036m55.305-13.64c.572 0 1.035-.464 1.035-1.037v-3.732c0-.572-.463-1.036-1.035-1.036h-14.913c-.28 0-.53.11-.718.292l-.011.01-.017.02a1.028 1.028 0 00-.287.713V87.92c0 .279.11.53.29.716l.014.016.015.014c.185.178.437.289.714.289h14.913c.572 0 1.035-.464 1.035-1.036v-3.733c0-.57-.463-1.036-1.035-1.036h-10.14v-3.92h10.14c.572 0 1.035-.464 1.035-1.036v-3.732c0-.573-.463-1.039-1.035-1.039h-10.14v-3.917z"/></svg>