<svg width="150" height="150" xmlns="http://www.w3.org/2000/svg"><g fill-rule="evenodd"><path d="M39.126 137.181a26.32 26.32 0 0013.153-3.522l-2.391-4.143a21.465 21.465 0 01-10.762 2.882c-11.869 0-21.524-9.656-21.524-21.524 0-11.867 9.656-21.523 21.524-21.523 11.867 0 21.523 9.656 21.523 21.523a21.523 21.523 0 01-7.45 16.288l3.133 3.617a26.317 26.317 0 009.1-19.904c0-14.505-11.802-26.308-26.308-26.308s-26.308 11.802-26.308 26.308 11.802 26.308 26.308 26.308l.002-.002z"/><path d="M77.39 39.126C77.39 18.026 60.226.86 39.127.86 18.026.86.86 18.026.86 39.126c0 16.46 10.463 30.48 25.076 35.874C11.324 80.393.86 94.414.86 110.874c0 21.1 17.166 38.266 38.266 38.266 21.099 0 38.265-17.166 38.265-38.266 0-16.46-10.463-30.48-25.076-35.874C66.927 69.607 77.39 55.586 77.39 39.126zm-4.782 71.747c0 18.462-15.02 33.482-33.482 33.482-18.463 0-33.483-15.019-33.483-33.482s15.02-33.482 33.483-33.482c18.463 0 33.482 15.019 33.482 33.482zM39.126 72.608c-18.463 0-33.483-15.02-33.483-33.482 0-18.463 15.02-33.483 33.483-33.483 18.463 0 33.482 15.02 33.482 33.483 0 18.463-15.02 33.482-33.482 33.482z"/><path d="M39.126 12.819c-14.505 0-26.309 11.802-26.309 26.308S24.62 65.435 39.126 65.435c14.505 0 26.308-11.802 26.308-26.308S53.63 12.819 39.126 12.819zm0 47.832c-11.869 0-21.524-9.657-21.524-21.524s9.656-21.523 21.524-21.523c11.867 0 21.523 9.656 21.523 21.523 0 11.867-9.656 21.524-21.523 21.524zm76.53-16.741c-18.462 0-33.482 15.02-33.482 33.482 0 18.463 15.02 33.482 33.482 33.482 18.463 0 33.482-15.019 33.482-33.482S134.12 43.91 115.656 43.91zM120.44 75h-9.566v-4.783h9.566V75zm0-9.566h-9.566V60.65h9.566v4.783zm-9.566 23.915h4.783v-4.783h-4.783v-4.783h9.566v14.35h-9.566v-4.784zm9.566-40.226v6.745h-9.566v-6.745c1.56-.263 3.15-.43 4.783-.43 1.632 0 3.223.167 4.783.43zm-33.482 28.27c0-12.467 8.006-23.073 19.133-27.025v54.049c-11.127-3.952-19.133-14.559-19.133-27.025zm23.916 28.268v-6.744h9.566v6.744c-1.56.263-3.15.43-4.783.43-1.632 0-3.223-.167-4.783-.43zm14.35-1.243v-54.05c11.126 3.953 19.132 14.56 19.132 27.025 0 12.466-8.006 23.073-19.133 27.025z"/><path d="M27.868 47L47 27.869l3.384 3.384-19.133 19.133zm-2.391-14.349l9.566-9.566 3.384 3.384-9.566 9.566zm14.35 19.133l9.566-9.567 3.384 3.384-9.566 9.567z"/></g></svg>