<svg xmlns="http://www.w3.org/2000/svg" viewBox="0 0 100 100"><path d="M50.01.683c-19.67 0-37.45 11.72-45.19 29.81l-.61.2.24.71c-10.19 25.15 1.92 53.8 27.06 64 5.87 2.38 12.15 3.6 18.48 3.6 27.14 0 49.15-22 49.15-49.15S77.15.693 50.01.683zm38.55 73.94l-2.52-2.52v-5.87c0-.25-.05-.5-.16-.73l-6.4-12.77v-6.17c0-.55-.27-1.06-.73-1.36l-4.91-3.28c-.39-.26-.86-.34-1.31-.23l-6.02 1.5-10.11-4.34-1.39-9.75 3.85-3.85h8.27l2.78 4.19c.25.38.65.63 1.09.71l9.83 1.64c.26.04.53.02.79-.06l9.05-3.02c7.61 14.58 6.8 32.1-2.11 45.91zm-6.76-57.79l-2.66 1.78-7.43-1.49-4.82-1.6c-.29-.1-.61-.11-.91-.04l-6.09 1.52-2.67-.89 1.98-3.96h5.54c.25 0 .5-.06.73-.17l5.67-2.83c3.9 2.03 7.49 4.62 10.66 7.68zm-49.75-9.21l3.93 2.62c.19.13.41.21.64.25l7.94 1.32-.77 2.33-4.14 1.38c-.37.12-.68.37-.89.71l-4.7 7.84-7.56 4.54-11.14 1.59c-.81.11-1.41.8-1.41 1.62v4.92c0 .43.17.85.48 1.16l2.8 2.8v2.82l-6.81-4.55-2.47-7.42a46.116 46.116 0 0124.1-23.93zm-4.66 53.72l-7.4-1.48-2.75-5.49v-3.85l6.1-6.11 2.26 4.52c.28.56.85.91 1.47.91h10.54l4.44 7.4c.3.49.83.79 1.4.79H48l-1.15 5.75-6.2 6.2c-.31.31-.48.72-.48 1.16v4.1l-5.9 4.42c-.41.31-.66.8-.66 1.31v5.92l-2.04-.68-2.88-7.2v-16.06a1.63 1.63 0 00-1.3-1.61zm-4.93 25.19C7.02 74.943.49 54.913 6.13 36.443l1.36 4.09c.11.35.34.64.64.85l8.17 5.44-1.86 1.86c-.31.31-.48.72-.48 1.16v4.92c0 .25.06.5.17.73l3.28 6.55c.23.45.65.78 1.15.87l6.88 1.37v15.05c0 .21.04.41.12.61l3.28 8.19c.18.45.55.79 1 .95l4.91 1.64c.16.06.34.08.51.09.9 0 1.64-.73 1.64-1.64v-7.37l5.9-4.42c.41-.31.66-.8.66-1.31v-4.24l6.07-6.07c.23-.23.38-.52.45-.84l1.64-8.19a1.64 1.64 0 00-1.61-1.96h-5.63l-4.44-7.4c-.3-.49-.83-.79-1.4-.79H28.07l-2.81-5.65c-.24-.47-.68-.8-1.2-.88-.52-.09-1.05.08-1.42.46l-2.13 2.12v-2.6c0-.43-.17-.85-.48-1.16l-2.8-2.8v-2.82l10.06-1.44c.22-.03.42-.11.61-.22l8.19-4.92c.23-.14.42-.33.56-.56l4.6-7.67 4.34-1.45c.49-.16.87-.55 1.04-1.04l1.64-4.92c.28-.86-.18-1.79-1.04-2.07-.08-.03-.16-.05-.24-.06l-9.48-1.58-1.67-1.11a45.739 45.739 0 0131.51 1.17l-2.99 1.49h-6.17c-.62 0-1.2.35-1.47.91l-3.28 6.55c-.4.81-.07 1.79.74 2.2l.21.09 4.91 1.64c.29.1.61.11.91.04l6.09-1.52 4.46 1.49c.06.02.13.04.2.05l8.19 1.64c.43.09.87 0 1.23-.24l3.73-2.49c1.84 2.04 3.48 4.25 4.93 6.59l-8.06 2.69-8.73-1.46-2.88-4.33c-.3-.45-.81-.73-1.35-.73h-9.83c-.43 0-.85.17-1.16.48l-4.91 4.92c-.36.36-.54.88-.46 1.39l1.64 11.47c.08.57.46 1.05.98 1.27l11.47 4.92c.33.14.7.17 1.04.08l5.85-1.46 3.58 2.39v5.68c0 .25.05.5.16.73l6.39 12.76v6.17c0 .43.17.85.48 1.16l3.43 3.43c-15.21 20.25-43.96 24.35-64.22 9.15z"/></svg>