<svg width="21" height="25" xmlns="http://www.w3.org/2000/svg"><path d="M9.137 15.695c-.504 2.642-1.119 5.175-2.943 6.498-.562-3.993.827-6.992 1.472-10.177-1.1-1.852.133-5.578 2.453-4.66 2.854 1.13-2.472 6.884 1.103 7.602 3.734.752 5.257-6.477 2.943-8.829-3.345-3.393-9.738-.076-8.95 4.783.19 1.188 1.417 1.548.489 3.188-2.14-.474-2.78-2.162-2.697-4.415.132-3.684 3.31-6.264 6.498-6.62 4.032-.452 7.817 1.479 8.338 5.273.59 4.28-1.818 8.917-6.131 8.582-1.168-.09-1.658-.67-2.575-1.225" mask="url(#mask-2)" fill-rule="evenodd"/></svg>