<svg xmlns="http://www.w3.org/2000/svg" viewBox="0 0 98.4 98.4" width="100" height="100"><path d="M49.2 0C22 0 0 22 0 49.2c0 20.2 12.1 37.5 29.5 45.1-.1-3.4 0-7.6.9-11.3.9-4 6.3-26.8 6.3-26.8s-1.6-3.1-1.6-7.8c0-7.3 4.2-12.7 9.5-12.7 4.5 0 6.6 3.4 6.6 7.4 0 4.5-2.9 11.2-4.3 17.5-1.2 5.2 2.6 9.5 7.8 9.5 9.3 0 15.6-12 15.6-26.2C70.2 33 63 25 49.8 25c-14.9 0-24.2 11.1-24.2 23.6 0 4.3 1.3 7.3 3.2 9.7.9 1.1 1 1.5.7 2.7-.2.9-.8 3.1-1 3.9-.3 1.2-1.3 1.7-2.5 1.2-6.9-2.8-10.1-10.3-10.1-18.8 0-14 11.8-30.8 35.2-30.8 18.8 0 31.2 13.6 31.2 28.2 0 19.3-10.7 33.7-26.6 33.7-5.3 0-10.3-2.9-12-6.1 0 0-2.9 11.3-3.5 13.5-1 3.8-3.1 7.6-5 10.5 4.4 1.3 9.1 2 13.9 2 27.2 0 49.2-22 49.2-49.2C98.4 22 76.4 0 49.2 0"/></svg>