<svg width="150" height="150" xmlns="http://www.w3.org/2000/svg"><g fill-rule="evenodd"><path d="M102.6 72.83L59.28 43.502c-1.27-.903-4.913-.903-5.28 2.699v58.479c.367 3.779 4 3.779 5.28 2.699l43.132-29.151c1.28-.717 2.73-3.416.187-5.398zM61 98V52l34 23-34 23z"/><path d="M75 0C33.76 0 0 33.76 0 75s33.76 75 75 75 75-33.76 75-75S116.24 0 75 0zm0 143.556c-37.757 0-68.556-30.8-68.556-68.556 0-37.757 30.8-68.556 68.556-68.556 37.757 0 68.556 30.8 68.556 68.556 0 37.757-30.8 68.556-68.556 68.556z"/></g></svg>