<svg width="24" height="24" viewBox="0 0 24 24" fill="none" xmlns="http://www.w3.org/2000/svg">
<path d="M1.33336 6.67163L2.70577 7.02172C2.71288 6.92094 2.72151 6.81224 2.73199 6.69681C2.79103 6.04618 2.90964 5.1706 3.1498 4.28843C3.38823 3.41258 3.75655 2.49193 4.33693 1.78127C4.92954 1.05566 5.75251 0.541992 6.85063 0.541992C7.12677 0.541992 7.35063 0.76585 7.35063 1.04199C7.35063 1.31813 7.12677 1.54199 6.85063 1.54199C6.10967 1.54199 5.55333 1.87277 5.11145 2.41382C4.65736 2.96984 4.33602 3.73807 4.11468 4.55111C3.89507 5.35783 3.7838 6.17114 3.72789 6.78718C3.71138 6.96917 3.69978 7.133 3.69163 7.27321L4.27589 7.42225V20.1827L1.33336 19.4321V6.67163Z" fill="#000"/>
<path fill-rule="evenodd" clip-rule="evenodd" d="M5.90109 7.35741L5.01152 7.42225V20.1827L10.0727 19.8149C9.66072 18.8992 9.42531 17.8783 9.42531 16.805C9.42531 13.2545 11.978 10.3046 15.3104 9.76417V6.67163L13.7328 6.78661C13.7527 6.22612 13.7407 5.55271 13.6446 4.86649C13.5241 4.00569 13.2657 3.08337 12.7343 2.34034C12.1892 1.57813 11.3712 1.02742 10.2071 0.919438C8.87221 0.795648 7.88827 1.20989 7.20504 1.94584C6.54412 2.65776 6.20854 3.62299 6.03931 4.53808C5.86868 5.46071 5.85721 6.38759 5.88636 7.07617C5.89053 7.17469 5.89555 7.26866 5.90109 7.35741ZM6.89851 7.28472L12.7291 6.85976C12.753 6.31935 12.7464 5.66333 12.6543 5.00515C12.5449 4.22397 12.3206 3.48086 11.9209 2.92204C11.535 2.3824 10.9737 1.99484 10.1148 1.91516C9.06185 1.81752 8.39207 2.13701 7.93791 2.62621C7.46146 3.13943 7.17598 3.89077 7.02264 4.71993C6.87069 5.54154 6.85807 6.38659 6.88547 7.03388C6.88918 7.12162 6.89362 7.20543 6.89851 7.28472Z" fill="#000"/>
<path fill-rule="evenodd" clip-rule="evenodd" d="M15.3104 10.5298C15.6709 10.4622 16.0387 10.4247 16.4139 10.4247C19.864 10.4247 22.6667 13.2846 22.6667 16.805C22.6667 20.3254 19.864 23.1852 16.4139 23.1852C14.0084 23.1852 11.9118 21.7966 10.8746 19.7549C10.4185 18.8692 10.161 17.8708 10.161 16.805C10.161 13.6674 12.3826 11.0552 15.3104 10.5298ZM16.0461 16.805C16.0461 17.0151 16.2079 17.1803 16.4139 17.1803H20.092C20.298 17.1803 20.4598 17.0151 20.4598 16.805C20.4598 16.5948 20.298 16.4297 20.092 16.4297H16.7817V13.0519C16.7817 12.8417 16.6198 12.6766 16.4139 12.6766C16.2079 12.6766 16.0461 12.8417 16.0461 13.0519V16.805Z" fill="#000"/>
</svg>
