<svg xmlns="http://www.w3.org/2000/svg" viewBox="0 0 248.059 248.059" width="100" height="100"><path d="M230.559 62.498h-27.785V17.133a7.5 7.5 0 00-7.5-7.5H52.785a7.5 7.5 0 00-7.5 7.5v45.365H17.5c-9.649 0-17.5 7.85-17.5 17.5v96.225c0 9.649 7.851 17.5 17.5 17.5h27.785v37.203a7.5 7.5 0 007.5 7.5h142.488a7.5 7.5 0 007.5-7.5v-37.203h27.785c9.649 0 17.5-7.851 17.5-17.5V79.998c.001-9.649-7.85-17.5-17.499-17.5zM60.285 24.633h127.488v37.865H60.285V24.633zm127.488 198.793H60.285v-74.404h127.488v74.404zm45.286-47.203c0 1.355-1.145 2.5-2.5 2.5h-27.785v-37.201a7.5 7.5 0 00-7.5-7.5H52.785a7.5 7.5 0 00-7.5 7.5v37.201H17.5c-1.355 0-2.5-1.145-2.5-2.5V79.998c0-1.356 1.145-2.5 2.5-2.5h213.058c1.355 0 2.5 1.144 2.5 2.5v96.225z"/><path d="M158.151 163.822H89.907a7.5 7.5 0 00-7.5 7.5 7.5 7.5 0 007.5 7.5h68.244a7.5 7.5 0 007.5-7.5 7.5 7.5 0 00-7.5-7.5zm0 29.801H89.907a7.5 7.5 0 00-7.5 7.5 7.5 7.5 0 007.5 7.5h68.244a7.5 7.5 0 007.5-7.5c0-4.143-3.357-7.5-7.5-7.5z"/></svg>