<svg xmlns="http://www.w3.org/2000/svg" viewBox="0 0 100 100"><path d="M84.1 9.16a3.76 3.76 0 015.32 0 3.76 3.76 0 010 5.32L14.99 88.9a3.76 3.76 0 01-5.32 0 3.76 3.76 0 010-5.32L84.1 9.16zM66.41 21.54c-5.26-1.61-10.93-2.58-16.86-2.58C22.56 18.96.68 39 .68 49.03c0 5.57 6.76 14.24 17.4 20.84l5.48-5.48a56.46 56.46 0 01-4.22-2.7c-3.9-2.76-6.88-5.68-8.81-8.25-.96-1.28-1.59-2.37-1.95-3.22a8.42 8.42 0 01-.3-.81c-.03-.12-.05-.21-.06-.27l-.01-.1c.01-.06.05-.44.37-1.19.2-.46.48-1 .85-1.6.3-.5.67-1.04 1.11-1.62 1.93-2.57 4.91-5.49 8.81-8.25.65-.46 1.32-.91 2.01-1.36l.66-.42a56.315 56.315 0 016.18-3.32c1.07-.49 2.16-.95 3.29-1.38a26.223 26.223 0 00-8.24 19.13c0 4.53 1.15 8.8 3.16 12.52l5.65-5.65a18.65 18.65 0 01-1.29-6.87c0-10.38 8.42-18.8 18.8-18.8 2.42 0 4.74.46 6.87 1.29l9.97-9.98zM42.68 66.53c2.13.84 4.44 1.29 6.87 1.29 10.38 0 18.8-8.41 18.8-18.8 0-2.42-.46-4.74-1.29-6.87l5.65-5.65c2.02 3.72 3.16 7.99 3.16 12.52 0 7.54-3.17 14.33-8.25 19.13 4.52-1.72 8.62-3.98 12.14-6.47 3.9-2.76 6.88-5.68 8.81-8.25.63-.84 1.12-1.6 1.48-2.27.13-.24.25-.47.35-.68l.12-.27c.32-.75.37-1.13.37-1.19 0-.03-.01-.13-.06-.32-.05-.2-.15-.48-.31-.87-.37-.85-.99-1.94-1.95-3.22-1.93-2.57-4.91-5.49-8.81-8.25a54.48 54.48 0 00-4.22-2.7l5.48-5.48c10.64 6.6 17.4 15.27 17.4 20.84 0 10.02-21.88 30.07-48.87 30.07-5.92 0-11.61-.97-16.86-2.58l9.99-9.98z"/></svg>