<svg xmlns="http://www.w3.org/2000/svg" viewBox="0 0 100 100"><path d="M49.55 80.64C71.76 80.64 98 62.65 98 49.03S71.76 17.42 49.55 17.42 1.09 35.4 1.09 49.03s26.25 31.61 48.46 31.61zm0-7.09c-18.74 0-41.36-15.51-41.36-24.52s22.62-24.52 41.36-24.52 41.36 15.51 41.36 24.52-22.62 24.52-41.36 24.52z"/><path d="M49.55 69.41c11.26 0 20.39-9.13 20.39-20.39s-9.13-20.39-20.39-20.39-20.39 9.13-20.39 20.39 9.13 20.39 20.39 20.39zm0-7.09c-7.34 0-13.3-5.95-13.3-13.3s5.95-13.3 13.3-13.3 13.3 5.95 13.3 13.3-5.96 13.3-13.3 13.3z"/></svg>