<svg width="150" height="150" xmlns="http://www.w3.org/2000/svg"><path d="M75 150c-41.356 0-75-33.644-75-75S33.644 0 75 0s75 33.644 75 75-33.644 75-75 75zm14.931-72.85c-9.056 7.331-8.719 15.45-8.7 15.787.194 3.407-2.381 6.388-5.781 6.638a5.995 5.995 0 01-.469.019c-3.206 0-5.918-2.4-6.206-5.644-.05-.6-1.144-14.831 13.287-26.519 4.013-3.243 5.438-6.093 5.438-10.862 0-7.263-5.606-13.175-12.5-13.175-7.125 0-12.5 5.375-12.5 12.5 0 3.456-2.8 6.25-6.25 6.25a6.248 6.248 0 01-6.25-6.25C50 41.88 60.981 30.9 75 30.9c13.788 0 25 11.512 25 25.669 0 8.593-3.106 14.944-10.069 20.581zm-13.9 29.012c3.4.588 5.713 3.644 5.125 7.05l-.056.35a6.259 6.259 0 01-6.156 5.188 6.24 6.24 0 01-1.069-.094 6.247 6.247 0 01-5.094-7.219c.588-3.4 3.832-5.868 7.25-5.275z" fill-rule="evenodd"/></svg>