<svg width="150" height="125" xmlns="http://www.w3.org/2000/svg"><path d="M121.462 40.445c-8.392-15.786-26.466-26.556-46.66-26.556-24.05 0-45.095 15.278-51.108 36.805-.751 3.473-5.26 6.25-9.019 4.862-3.757-.695-6.764-4.862-5.26-8.334C16.93 19.444 43.986 0 74.801 0c24.158 0 46.005 11.95 57.94 30.496l2.583-8.95c.751-3.473 5.26-6.25 9.019-4.861 3.758.694 6.764 4.86 5.26 8.333l-7.515 27.778c-.752 2.083-4.51 4.166-7.516 4.166h-1.503l-30.064-6.944c-3.758-.695-6.764-4.861-5.26-8.333.75-3.473 5.26-6.25 9.018-4.862l14.698 3.622zM17.144 94.936l-2.469 8.554c-.751 3.472-4.51 5.556-7.515 5.556H5.656c-3.758-.695-6.764-4.861-5.26-8.334L7.91 72.935c.752-3.473 5.261-6.25 9.02-4.861l30.063 6.944c3.758.694 6.764 4.861 5.26 8.333-.75 3.473-5.26 6.25-9.018 4.861l-15.386-3.79c8.892 16.042 26.875 26.69 46.952 26.69 24.051 0 45.096-15.279 51.108-36.806.752-3.473 5.261-6.25 9.02-4.862 3.757.695 6.764 4.862 5.26 8.334C132.674 105.556 105.617 125 74.802 125c-23.969 0-45.664-11.764-57.658-30.064z"/></svg>