<svg viewBox="0 0 14 15" fill="none" xmlns="http://www.w3.org/2000/svg">
<path d="M13.1546 5.91802C13.4451 5.91802 13.566 6.28978 13.331 6.46066L10.0195 8.86851C9.68994 9.10812 9.56248 9.53923 9.70875 9.91951L11.1679 13.7131C11.2752 13.9921 10.9531 14.2392 10.7114 14.0635L7.52936 11.7492C7.21377 11.5197 6.78623 11.5197 6.47064 11.7492L3.28858 14.0635C3.04687 14.2393 2.72483 13.9921 2.83212 13.7131L4.29125 9.91951C4.43752 9.53923 4.31006 9.10812 3.98052 8.86851L0.66901 6.46066C0.434006 6.28978 0.554876 5.91802 0.845437 5.91802H4.63047C5.02323 5.91802 5.37064 5.66332 5.48878 5.28874L6.71389 1.40447C6.80211 1.12479 7.1979 1.12479 7.28611 1.40447L8.51122 5.28874C8.62936 5.66331 8.97677 5.91802 9.36954 5.91802H13.1546Z" fill="#000" stroke="#000" stroke-width="0.6"/>
</svg>
