<svg version="1.0" xmlns="http://www.w3.org/2000/svg" width="160" height="160" viewBox="0 0 120 120"><path d="M51.6 22.8c-4.4 9.7-8.3 18.1-8.6 18.5-.4.5-9.6 1.9-20.4 3.1-10.8 1.2-19.8 2.4-20 2.7-.2.2 6.3 6.5 14.5 13.9S32 74.8 32 75.1c0 .3-1.8 9.3-3.9 20-2.2 10.7-3.8 19.5-3.7 19.7.2.1 8.3-4.2 18-9.7l17.6-10 17.6 10c9.7 5.5 17.8 9.8 18 9.7.1-.2-1.5-9-3.7-19.7-2.1-10.7-3.9-19.7-3.9-20 0-.3 6.7-6.7 14.9-14.1 8.2-7.4 14.7-13.7 14.5-13.9-.2-.3-9.2-1.5-20-2.7-10.8-1.2-20-2.6-20.4-3.1-.3-.4-4.2-8.8-8.6-18.5C64.1 13 60.3 5.1 60 5.1c-.3 0-4.1 7.9-8.4 17.7zM55 57.7l.1 7.8 7.3-7.8c4-4.2 7.9-7.7 8.7-7.7.7 0-1.9 3.3-5.8 7.2l-7.2 7.3 6.9 8.4C73.7 83.2 73.5 83 71.1 83c-1.3 0-4.3-3-8.8-8.6l-6.8-8.6-.3 8.6c-.2 6.7-.6 8.6-1.7 8.6-1.3 0-1.5-2.7-1.5-16.5 0-14 .2-16.5 1.5-16.5 1.2 0 1.5 1.5 1.5 7.7z"/></svg>