<svg width="24" height="24" viewBox="0 0 24 24" fill="none" xmlns="http://www.w3.org/2000/svg">
<path d="M12 3.99999C12.2762 3.99999 12.5 4.22385 12.5 4.49999V11.7929L17.657 16.9498C17.8522 17.1451 17.8522 17.4617 17.657 17.6569C17.4617 17.8522 17.1451 17.8522 16.9499 17.6569L11.6465 12.3536C11.6077 12.3148 11.5766 12.2712 11.5532 12.2247C11.5192 12.1571 11.5 12.0808 11.5 12V4.49999C11.5 4.22385 11.7239 3.99999 12 3.99999Z" fill="#000"/>
<path fill-rule="evenodd" clip-rule="evenodd" d="M0.166687 12C0.166687 5.4647 5.46473 0.166656 12 0.166656C18.5353 0.166656 23.8334 5.4647 23.8334 12C23.8334 18.5353 18.5353 23.8333 12 23.8333C5.46473 23.8333 0.166687 18.5353 0.166687 12ZM12 1.16666C6.01701 1.16666 1.16669 6.01698 1.16669 12C1.16669 17.983 6.01701 22.8333 12 22.8333C17.983 22.8333 22.8334 17.983 22.8334 12C22.8334 6.01698 17.983 1.16666 12 1.16666Z" fill="#000"/>
</svg>
