<svg width="40" height="40" fill="none" xmlns="http://www.w3.org/2000/svg"><path fill-rule="evenodd" clip-rule="evenodd" d="M12.986 25.7c.148.013.254-.072.26-.23.015-.38.195-.684.458-.953.365-.376.814-.64 1.295-.854 1.475-.655 3.047-.913 4.656-.982a16.124 16.124 0 012.654.092c1.05.128 2.079.337 3.062.719.65.252 1.264.568 1.743 1.077.466.495.553 1.105.172 1.611a3.386 3.386 0 01-.768.727c-.518.358-1.088.606-1.683.795-.876.273-1.883.424-2.71.507-.639.057-1.243.09-1.516.1l-.15.003c.059-.063.093-.104.132-.141l.65-.616c.171-.164.199-.293.085-.401-.107-.103-.239-.076-.405.082l-.885.843c-.161.153-.324.304-.492.462l1.377 1.316c.166.158.298.185.405.082.114-.108.086-.238-.086-.4l-.785-.763c.877-.023 1.629-.09 2.25-.171a11.785 11.785 0 001.713-.322c.274-.07.414-.12.414-.12h.001c.378-.12.75-.26 1.113-.427.58-.266 1.124-.586 1.544-1.064.656-.748.655-1.62-.01-2.362-.427-.478-.97-.808-1.558-1.073-1.246-.562-2.576-.818-3.936-.94a17.619 17.619 0 00-3.077-.014c-1.126.096-2.228.287-3.295.647-.763.258-1.48.6-2.082 1.127-.416.362-.698.796-.75 1.344-.015.17.062.286.204.299" fill="#000"/><path d="M12.986 25.7c.148.013.254-.072.26-.23.015-.38.195-.684.458-.953.365-.376.814-.64 1.295-.854 1.475-.655 3.047-.913 4.656-.982a16.124 16.124 0 012.654.092c1.05.128 2.079.337 3.062.719.65.252 1.264.568 1.743 1.077.466.495.553 1.105.172 1.611a3.386 3.386 0 01-.768.727c-.518.358-1.088.606-1.683.795-.876.273-1.883.424-2.71.507-.639.057-1.243.09-1.516.1l-.15.003c.059-.063.093-.104.132-.141l.65-.616c.171-.164.199-.293.085-.401-.107-.103-.239-.076-.405.082l-.885.843c-.161.153-.324.304-.492.462l1.377 1.316c.166.158.298.185.405.082.114-.108.086-.238-.086-.4l-.785-.763c.877-.023 1.629-.09 2.25-.171a11.785 11.785 0 001.713-.322c.274-.07.414-.12.414-.12h.001c.378-.12.75-.26 1.113-.427.58-.266 1.124-.586 1.544-1.064.656-.748.655-1.62-.01-2.362-.427-.478-.97-.808-1.558-1.073-1.246-.562-2.576-.818-3.936-.94a17.619 17.619 0 00-3.077-.014c-1.126.096-2.228.287-3.295.647-.763.258-1.48.6-2.082 1.127-.416.362-.698.796-.75 1.344-.015.17.062.286.204.299" stroke="#000" stroke-width=".5"/><path d="M12.866 16.83l-.528-.892 2.101-1.936h-3.41v-.99h4.84v.968l-2.035 1.881c.58 0 1.09.191 1.53.572.446.382.67.913.67 1.595 0 .631-.23 1.17-.693 1.617-.462.448-1.093.671-1.892.671-.785 0-1.415-.216-1.892-.649a2.304 2.304 0 01-.759-1.595l1.056-.242c.022.462.18.836.473 1.122.3.279.671.418 1.111.418.47 0 .836-.124 1.1-.374.271-.256.407-.572.407-.946 0-.432-.143-.762-.429-.99a1.593 1.593 0 00-1.023-.34 1.85 1.85 0 00-.627.11zm9.38-3.587l-.33.88c-.352-.205-.777-.308-1.276-.308-.726 0-1.316.239-1.77.715-.448.477-.694 1.09-.738 1.837a1.88 1.88 0 01.726-.66c.33-.176.715-.264 1.155-.264.726 0 1.313.217 1.76.65.455.432.682 1.026.682 1.781 0 .741-.256 1.331-.77 1.771-.513.44-1.136.66-1.87.66-.763 0-1.419-.275-1.969-.825-.543-.557-.814-1.382-.814-2.475 0-1.29.345-2.306 1.034-3.047.69-.74 1.57-1.11 2.64-1.11.653 0 1.166.131 1.54.395zm-3.96 4.631c0 .448.154.81.462 1.09a1.58 1.58 0 001.078.406c.433 0 .796-.135 1.09-.407.3-.271.45-.634.45-1.089 0-.462-.15-.828-.45-1.1-.294-.271-.657-.407-1.09-.407-.433 0-.8.136-1.1.407-.293.272-.44.638-.44 1.1zm6.81-3.608c-.418.44-.627 1.21-.627 2.31s.21 1.87.627 2.31c.293.308.671.462 1.133.462.462 0 .84-.154 1.133-.462.418-.44.627-1.21.627-2.31s-.209-1.87-.627-2.31c-.293-.308-.67-.462-1.133-.462-.462 0-.84.154-1.133.462zm-1.056 4.895c-.425-.63-.638-1.492-.638-2.585 0-1.092.213-1.954.638-2.585.506-.762 1.236-1.144 2.19-1.144.952 0 1.682.382 2.188 1.144.425.631.638 1.493.638 2.585 0 1.093-.213 1.955-.638 2.585-.506.763-1.236 1.144-2.189 1.144-.953 0-1.683-.381-2.189-1.144z" fill="#000"/></svg>