<svg xmlns="http://www.w3.org/2000/svg" width="100" height="100" viewBox="0 0 32.521 32.495"><defs><style>.cls-1{fill:#41af63;stroke:#fff;stroke-width:2px}.cls-2{fill:#f6fefa}</style></defs><g id="Grupo_2585" transform="translate(-167.31 -314.784)"><path id="Caminho_537" class="cls-1" d="M87.5 101.05a13.4 13.4 0 0 1-5.228-1.48c-1.543-.81-1.555-.81-1.814-.74a48.9 48.9 0 0 0-.961.266c-1.094.3-2.131.569-2.592.664a7.98 7.98 0 0 0-.771.215 2.113 2.113 0 0 1-.518.133.937.937 0 0 0-.316.063c-.139.051-.177.038-.266-.095s-.089-.19.032-.645a108.943 108.943 0 0 1 .86-3.138c.487-1.7.487-1.721-.063-2.638a16.082 16.082 0 0 1-1.9-4.745 17.123 17.123 0 0 1-.057-5.536 26.124 26.124 0 0 1 .961-3.41 14.36 14.36 0 0 1 3.18-4.726 15.711 15.711 0 0 1 4.2-3.03 14.461 14.461 0 0 1 4.305-1.4 18.648 18.648 0 0 1 3.945-.127 19.864 19.864 0 0 1 3.762.86c.107.044.424.177.7.3a15 15 0 0 1 3.477 2.119 15.381 15.381 0 0 1 5.715 11.186 14.274 14.274 0 0 1-2.333 8.959 15.29 15.29 0 0 1-6.1 5.466 14.817 14.817 0 0 1-8.218 1.479z" transform="translate(94.647 245.189)"></path><path id="Caminho_538" class="cls-2" d="M1019.419 1121.268c-.064-.009-.268-.048-.453-.088s-.477-.083-.651-.1a3.241 3.241 0 0 1-.506-.1 4.524 4.524 0 0 0-.482-.118 2.079 2.079 0 0 1-.407-.1 2.946 2.946 0 0 0-.349-.11 4.476 4.476 0 0 1-.494-.157 1.5 1.5 0 0 0-.361-.1.382.382 0 0 1-.192-.07 1 1 0 0 0-.279-.122 7.655 7.655 0 0 1-.855-.337 4.022 4.022 0 0 0-.3-.122 1.505 1.505 0 0 1-.279-.153.3.3 0 0 0-.157-.07.419.419 0 0 1-.186-.074 4.41 4.41 0 0 0-.453-.254 12.845 12.845 0 0 1-2.116-1.421 14.091 14.091 0 0 1-2.39-2.077c-.081-.1-.2-.232-.262-.3a7.211 7.211 0 0 1-.9-1.268.178.178 0 0 0-.087-.114.368.368 0 0 1-.122-.214 2.849 2.849 0 0 0-.186-.441 1.672 1.672 0 0 1-.146-.962 1.821 1.821 0 0 1 .186-1.093 2.336 2.336 0 0 1 .273-.486.2.2 0 0 0 .081-.1 4.419 4.419 0 0 1 .779-.831 2.9 2.9 0 0 1 .849-.446 5.172 5.172 0 0 1 1.622.009 1.208 1.208 0 0 1 .581.533c.076.114.192.311.268.429l.285.459a1.267 1.267 0 0 1 .151.3.649.649 0 0 0 .116.219 2.049 2.049 0 0 1 .453 1.093c.017.363.017.367-.2.612a4.411 4.411 0 0 1-.32.324c-.058.044-.1.092-.1.114a1.332 1.332 0 0 1-.262.24c-.552.433-.523.722.145 1.452a10.926 10.926 0 0 0 2.262 1.837c.232.144.488.306.57.363a.615.615 0 0 0 .186.1.384.384 0 0 1 .145.083 1.012 1.012 0 0 0 .285.14 1.309 1.309 0 0 1 .273.109 7.305 7.305 0 0 0 .989.389.821.821 0 0 1 .221.079 3.5 3.5 0 0 0 .459.148c.354.092.384.092.529.026a10.122 10.122 0 0 0 1.3-1 1.2 1.2 0 0 1 .942-.42 1.544 1.544 0 0 1 .646.136 2.329 2.329 0 0 0 .407.135.269.269 0 0 1 .145.066.862.862 0 0 0 .326.114.877.877 0 0 1 .32.109.838.838 0 0 0 .308.109 1.731 1.731 0 0 1 .384.127 1.123 1.123 0 0 0 .332.1 1.117 1.117 0 0 1 .319.109 1.16 1.16 0 0 0 .308.109.99.99 0 0 1 .337.149c.14.1.157.145.157.4a1.413 1.413 0 0 1-.145.6 1.837 1.837 0 0 0-.146.376 2.924 2.924 0 0 1-.936.8 5.2 5.2 0 0 1-2.576.783 5.461 5.461 0 0 1-.641-.032z" transform="translate(-831.569 -784.094)"></path></g></svg>