<svg width="20" height="15" xmlns="http://www.w3.org/2000/svg"><path d="M8.269 9.48V3.987l5.244 2.756L8.27 9.48zm11.516-6.445s-.19-1.347-.772-1.94c-.738-.78-1.565-.783-1.944-.828-2.717-.198-6.792-.198-6.792-.198h-.008s-4.075 0-6.791.198c-.38.045-1.207.049-1.946.828-.582.593-.77 1.94-.77 1.94S.566 4.617.566 6.199v1.483c0 1.583.194 3.164.194 3.164s.19 1.347.771 1.94c.739.78 1.71.755 2.141.836 1.553.15 6.6.197 6.6.197s4.08-.006 6.796-.204c.379-.046 1.206-.05 1.944-.828.582-.594.772-1.94.772-1.94s.194-1.582.194-3.165V6.2c0-1.582-.194-3.164-.194-3.164z" fill-rule="evenodd"/></svg>